<?xml version="1.0" standalone="no"?>
<!DOCTYPE svg PUBLIC "-//W3C//DTD SVG 20010904//EN"
 "http://www.w3.org/TR/2001/REC-SVG-20010904/DTD/svg10.dtd">
<svg version="1.0" xmlns="http://www.w3.org/2000/svg"
 width="512.000000pt" height="512.000000pt" viewBox="0 0 512.000000 512.000000"
 preserveAspectRatio="xMidYMid meet">
<metadata>
Created by potrace 1.14, written by Peter Selinger 2001-2017
</metadata>
<g transform="translate(0.000000,512.000000) scale(0.100000,-0.100000)"
fill="#000000" stroke="none">
<path d="M485 4469 c-104 -4 -199 -8 -210 -10 -43 -9 -117 -53 -160 -97 -50
-50 -67 -80 -96 -161 -18 -51 -19 -110 -19 -1645 0 -1733 -3 -1633 56 -1734
55 -94 158 -165 261 -180 62 -10 4457 -7 4503 2 46 9 107 38 148 68 52 40 112
125 128 183 1 6 7 26 13 45 7 23 11 537 11 1616 0 1717 3 1625 -54 1726 -52
92 -162 171 -257 184 -60 8 -4085 11 -4324 3z m807 -815 c4 -10 16 -31 26 -46
26 -40 146 -242 151 -253 2 -5 7 -12 11 -15 3 -3 26 -39 49 -80 72 -124 77
-133 112 -190 19 -30 38 -58 44 -62 7 -5 7 -8 0 -8 -7 0 -7 -3 0 -8 6 -4 19
-24 30 -45 11 -21 27 -45 36 -53 14 -13 18 -10 35 23 10 21 22 40 27 41 4 2 7
7 7 11 0 4 43 78 95 165 52 86 95 161 95 166 0 6 3 10 8 10 4 0 16 17 27 38
11 20 46 79 77 130 32 51 58 97 58 101 0 4 8 18 18 29 9 12 24 32 33 44 l16
23 309 -2 c170 0 313 -1 318 -2 4 -1 6 -8 2 -16 -3 -8 -1 -15 4 -15 5 0 5 -12
0 -29 -4 -16 -6 -32 -3 -35 9 -9 9 -58 1 -83 -4 -13 -3 -23 2 -23 5 0 5 -12 0
-30 -5 -16 -5 -30 -2 -30 9 0 6 -76 -3 -90 -3 -6 -2 -10 4 -10 6 0 6 -11 1
-30 -5 -16 -5 -30 -1 -30 4 0 5 -20 1 -45 -4 -24 -3 -50 1 -56 4 -7 3 -23 -2
-36 -5 -14 -5 -23 1 -23 5 0 6 -9 1 -22 -4 -13 -5 -35 0 -50 4 -16 3 -30 -2
-33 -5 -4 -5 -14 1 -25 6 -12 7 -21 0 -25 -5 -3 -6 -15 0 -29 4 -12 4 -29 0
-36 -5 -8 -4 -22 1 -31 6 -11 5 -20 -1 -24 -6 -3 -6 -15 0 -29 5 -13 6 -26 3
-29 -7 -7 -10 -77 -3 -77 7 0 4 -65 -3 -77 -3 -5 -2 -15 3 -23 4 -7 5 -23 0
-35 -5 -12 -5 -28 0 -35 5 -7 4 -24 -1 -37 -5 -14 -5 -23 1 -23 5 0 6 -9 1
-22 -4 -13 -5 -35 0 -50 4 -16 3 -30 -2 -33 -5 -4 -5 -14 1 -25 6 -12 7 -21 0
-25 -5 -3 -6 -15 0 -29 4 -12 4 -29 0 -36 -5 -8 -4 -22 1 -31 6 -11 5 -20 -1
-24 -6 -3 -6 -15 0 -29 5 -13 6 -26 3 -29 -7 -7 -10 -77 -3 -77 7 0 4 -70 -4
-77 -3 -3 -1 -14 4 -24 7 -11 7 -27 0 -43 -5 -15 -6 -26 0 -26 5 0 5 -12 0
-30 -5 -16 -5 -30 -2 -30 9 0 6 -76 -3 -90 -3 -6 -2 -10 4 -10 6 0 6 -11 1
-30 -5 -19 -5 -30 1 -30 6 0 8 -4 5 -8 -5 -9 -7 -59 -5 -127 2 -90 39 -80
-313 -79 -172 1 -316 2 -319 3 -11 2 -17 51 -8 57 5 3 5 14 -1 24 -6 12 -7 21
0 25 5 3 6 15 0 29 -4 12 -4 29 0 36 5 8 4 22 -1 31 -6 11 -5 20 1 24 6 3 6
15 0 29 -5 13 -6 26 -3 29 7 7 10 77 3 77 -7 0 -4 70 4 77 3 3 1 14 -4 24 -7
11 -7 27 0 43 5 15 6 26 0 26 -5 0 -5 12 0 30 5 17 5 30 2 30 -9 0 -6 76 3 90
3 6 2 10 -4 10 -6 0 -6 11 -1 30 5 17 5 30 1 30 -4 0 -5 20 -1 45 4 24 3 50
-1 56 -4 7 -3 23 1 35 6 14 5 26 0 29 -7 4 -6 13 0 25 6 12 7 21 0 25 -5 3 -6
15 0 29 4 12 4 29 0 36 -5 8 -5 19 1 26 7 8 7 14 0 18 -6 4 -7 14 -4 24 10 25
-23 -16 -222 -283 -99 -132 -188 -249 -197 -259 -10 -11 -18 -23 -18 -26 0 -4
-9 -17 -19 -29 l-20 -22 -20 20 c-12 12 -18 21 -13 21 4 0 2 4 -3 8 -6 4 -30
34 -55 67 -25 33 -47 62 -50 65 -3 3 -17 21 -30 40 -13 19 -27 37 -30 40 -4 3
-21 27 -40 54 -18 27 -41 57 -51 67 -10 10 -26 30 -36 46 -20 31 -24 37 -54
73 -11 14 -35 46 -52 73 -31 48 -41 55 -52 37 -3 -5 -2 -10 4 -10 10 0 10 -18
-1 -35 -4 -6 -3 -17 2 -25 5 -8 5 -22 -1 -32 -5 -10 -6 -18 -2 -18 4 0 8 -52
8 -115 0 -63 -3 -115 -7 -115 -4 0 -3 -11 2 -25 6 -15 6 -26 -1 -30 -6 -4 -6
-13 0 -23 5 -9 5 -26 0 -40 -5 -13 -6 -21 -1 -19 4 3 7 -19 7 -49 0 -30 -3
-54 -7 -54 -4 0 -3 -11 2 -25 6 -15 6 -26 -1 -30 -6 -4 -6 -13 0 -23 5 -9 5
-26 0 -40 -5 -13 -6 -21 -1 -19 4 3 7 -19 7 -49 0 -30 -3 -54 -7 -54 -4 0 -3
-11 2 -25 6 -15 6 -26 -1 -30 -6 -4 -6 -13 0 -23 6 -10 6 -23 0 -34 -5 -10 -6
-18 -2 -18 6 0 8 -64 4 -125 -1 -7 -113 -10 -317 -10 l-317 0 -8 22 c-4 12 -4
25 1 28 5 3 5 18 0 34 -4 15 -4 34 0 41 4 6 4 27 0 46 -4 19 -4 36 0 39 5 3 5
18 0 34 -4 15 -4 34 0 41 4 6 4 27 0 46 -4 19 -4 36 0 39 5 3 5 18 0 34 -4 16
-6 32 -3 35 7 7 7 101 0 113 -3 5 -2 15 3 23 4 7 4 24 0 36 -6 14 -5 26 0 29
5 3 5 18 0 35 -5 17 -5 30 0 30 5 0 5 13 0 30 -5 17 -5 30 0 30 5 0 5 13 0 30
-5 17 -5 30 0 30 5 0 5 13 0 30 -5 17 -5 30 0 30 5 0 5 13 0 30 -5 17 -5 30 0
30 5 0 5 13 0 30 -5 17 -5 30 0 30 5 0 5 13 0 30 -5 17 -5 30 0 30 5 0 5 13 0
30 -5 17 -5 30 0 30 5 0 5 13 0 30 -5 17 -5 30 0 30 5 0 5 13 0 30 -5 17 -5
30 0 30 5 0 5 13 0 30 -5 17 -5 30 0 30 5 0 5 13 0 30 -5 17 -5 30 0 30 5 0 5
13 0 30 -5 17 -5 30 0 30 5 0 5 13 0 30 -5 17 -5 30 0 30 5 0 5 13 0 30 -5 17
-5 30 0 30 5 0 5 13 0 30 -5 17 -5 30 0 30 5 0 5 13 0 30 -5 18 -5 32 1 36 5
3 7 10 3 15 -7 13 -9 117 -2 125 4 3 3 18 -2 33 -4 16 -4 34 0 41 4 6 4 27 0
46 -4 19 -4 36 0 39 5 3 5 18 0 34 -4 15 -4 34 0 41 4 7 4 25 0 40 -4 15 -4
33 0 40 5 7 5 23 0 34 -4 12 -4 31 1 44 5 12 5 22 1 22 -4 0 -2 4 5 8 6 4 152
7 324 6 299 0 312 -1 321 -20z m2866 9 c4 -6 5 -60 2 -119 -3 -60 -3 -133 0
-162 3 -30 3 -55 0 -57 -4 -2 -3 -29 0 -60 3 -31 3 -58 0 -60 -3 -2 -3 -29 0
-60 3 -31 2 -58 -2 -61 -5 -3 -6 -10 -3 -15 4 -5 6 -80 5 -167 -1 -86 -1 -164
-1 -172 1 -34 1 -141 0 -148 -4 -27 10 -28 236 -28 129 1 235 -3 235 -7 0 -7
-50 -79 -80 -114 -5 -7 -10 -15 -10 -17 0 -3 -15 -25 -32 -49 -18 -24 -41 -54
-51 -68 -86 -119 -154 -214 -189 -264 -22 -33 -61 -86 -84 -118 -24 -31 -44
-61 -44 -66 0 -5 -4 -11 -8 -13 -4 -1 -23 -25 -42 -53 -19 -27 -39 -55 -45
-62 -5 -6 -53 -72 -105 -147 -52 -74 -97 -135 -100 -135 -3 0 -142 192 -310
427 -167 235 -307 429 -310 432 -3 3 -25 34 -49 70 -24 36 -48 67 -53 68 -4 2
-8 10 -8 17 0 7 -3 15 -7 17 -19 8 -63 78 -51 79 7 1 113 2 235 3 122 0 224 4
227 7 4 3 6 33 6 65 -1 85 -1 142 -1 202 0 9 0 42 0 72 0 73 0 72 1 95 1 11 1
90 1 175 0 85 0 162 0 170 1 8 0 26 -1 40 -5 86 2 289 10 292 6 2 148 3 316 2
207 0 308 -4 312 -11z"/>
</g>
</svg>
